RBDS04runT45_grf
version=1
nRows=18
nColumns=19
inDegrees=no
endheader
time	ground_force_r_vx	ground_force_r_vy	ground_force_r_vz	ground_force_r_px	ground_force_r_py	ground_force_r_pz	ground_force_r_mx	ground_force_r_my	ground_force_r_mz	ground_force_l_vx	ground_force_l_vy	ground_force_l_vz	ground_force_l_px	ground_force_l_py	ground_force_l_pz	ground_force_l_mx	ground_force_l_my	ground_force_l_mz
     14.99900000	      0.00000000	      0.00000000	      0.00000000	      0.00000000	      0.00000000	      0.00000000	      0.00000000	      0.00000000	      0.00000000	    212.53047082	    586.08234090	     10.06982135	      1.93327035	      0.00000000	      0.95796185	      0.00000000	      8.01030044	     -0.00000000
     15.00000000	      0.00000000	      0.00000000	      0.00000000	      0.00000000	      0.00000000	      0.00000000	      0.00000000	      0.00000000	      0.00000000	    210.02223042	    565.23644232	      8.80472995	      1.93000216	      0.00000000	      0.95802530	      0.00000000	      7.66095935	     -0.00000000
     15.00100000	      0.00000000	      0.00000000	      0.00000000	      0.00000000	      0.00000000	      0.00000000	      0.00000000	      0.00000000	      0.00000000	    206.90004943	    544.95759019	      7.65959960	      1.92692361	      0.00000000	      0.95805985	      0.00000000	      7.29076556	     -0.00000000
     15.00200000	      0.00000000	      0.00000000	      0.00000000	      0.00000000	      0.00000000	      0.00000000	      0.00000000	      0.00000000	      0.00000000	    203.77786843	    524.67873806	      6.51446925	      1.92384506	      0.00000000	      0.95809440	      0.00000000	      6.92057177	     -0.00000000
     15.00300000	      0.00000000	      0.00000000	      0.00000000	      0.00000000	      0.00000000	      0.00000000	      0.00000000	      0.00000000	      0.00000000	    200.65568744	    504.39988592	      5.36933891	      1.92076652	      0.00000000	      0.95812894	      0.00000000	      6.55037798	     -0.00000000
     15.00400000	      0.00000000	      0.00000000	      0.00000000	      0.00000000	      0.00000000	      0.00000000	      0.00000000	      0.00000000	      0.00000000	    197.19419624	    484.61081048	      4.30740576	      1.91782189	      0.00000000	      0.95814365	      0.00000000	      6.16846177	     -0.00000000
     15.00500000	      0.00000000	      0.00000000	      0.00000000	      0.00000000	      0.00000000	      0.00000000	      0.00000000	      0.00000000	      0.00000000	    193.56304993	    465.06662339	      3.28707123	      1.91494422	      0.00000000	      0.95814844	      0.00000000	      5.78068434	     -0.00000000
     15.00600000	      0.00000000	      0.00000000	      0.00000000	      0.00000000	      0.00000000	      0.00000000	      0.00000000	      0.00000000	      0.00000000	    189.93190362	    445.52243630	      2.26673669	      1.91206656	      0.00000000	      0.95815322	      0.00000000	      5.39290692	     -0.00000000
     15.00700000	      0.00000000	      0.00000000	      0.00000000	      0.00000000	      0.00000000	      0.00000000	      0.00000000	      0.00000000	      0.00000000	    186.16881497	    426.27496855	      1.28825639	      1.90925886	      0.00000000	      0.95814826	      0.00000000	      5.00061163	     -0.00000000
     15.00800000	      0.00000000	      0.00000000	      0.00000000	      0.00000000	      0.00000000	      0.00000000	      0.00000000	      0.00000000	      0.00000000	    182.14184166	    407.62093948	      0.39348457	      1.90659108	      0.00000000	      0.95812379	      0.00000000	      4.59928062	     -0.00000000
     15.00900000	      0.00000000	      0.00000000	      0.00000000	      0.00000000	      0.00000000	      0.00000000	      0.00000000	      0.00000000	      0.00000000	    178.11486836	    388.96691042	     -0.50128725	      1.90392329	      0.00000000	      0.95809932	      0.00000000	      4.19794961	     -0.00000000
     15.01000000	      0.00000000	      0.00000000	      0.00000000	      0.00000000	      0.00000000	      0.00000000	      0.00000000	      0.00000000	      0.00000000	    174.08789505	    370.31288135	     -1.39605907	      1.90125551	      0.00000000	      0.95807485	      0.00000000	      3.79661859	     -0.00000000
     15.01100000	      0.00000000	      0.00000000	      0.00000000	      0.00000000	      0.00000000	      0.00000000	      0.00000000	      0.00000000	      0.00000000	    169.78281388	    352.68873517	     -2.16805454	      1.89880412	      0.00000000	      0.95802290	      0.00000000	      3.38649604	     -0.00000000
     15.01200000	      0.00000000	      0.00000000	      0.00000000	      0.00000000	      0.00000000	      0.00000000	      0.00000000	      0.00000000	      0.00000000	    165.47773271	    335.06458899	     -2.94005000	      1.89635272	      0.00000000	      0.95797096	      0.00000000	      2.97637348	     -0.00000000
     15.01300000	      0.00000000	      0.00000000	      0.00000000	      0.00000000	      0.00000000	      0.00000000	      0.00000000	      0.00000000	      0.00000000	    161.17265154	    317.44044280	     -3.71204546	      1.89390132	      0.00000000	      0.95791902	      0.00000000	      2.56625093	     -0.00000000
     15.01400000	      0.00000000	      0.00000000	      0.00000000	      0.00000000	      0.00000000	      0.00000000	      0.00000000	      0.00000000	      0.00000000	    156.76120810	    300.58334994	     -4.40603132	      1.89159670	      0.00000000	      0.95785072	      0.00000000	      2.15387472	     -0.00000000
     15.01500000	      0.00000000	      0.00000000	      0.00000000	      0.00000000	      0.00000000	      0.00000000	      0.00000000	      0.00000000	      0.00000000	    152.29658354	    284.10978374	     -5.06101238	      1.88936546	      0.00000000	      0.95777425	      0.00000000	      1.74037168	     -0.00000000
     15.01600000	      0.00000000	      0.00000000	      0.00000000	      0.00000000	      0.00000000	      0.00000000	      0.00000000	      0.00000000	      0.00000000	    147.83195897	    267.63621755	     -5.71599343	      1.88713423	      0.00000000	      0.95769778	      0.00000000	      1.32686865	     -0.00000000
